PathFileType	4	(X/Y/Z)	 control3min.trc
DataRate	CameraRate	NumFrames	NumMarkers	Units	OrigDataRate	OrigDataStartFrame	OrigNumFrames
200	200	8	43	m	200	126	1000
Frame#	Time	C7			LSH			RSH			MAN			RASI			LASI			HIPR			HIPL			RPSI			LPSI			COX			RTHI1			RTHI2			RTHI3			RTHI4			RLKN			RMKN			RSHA1			RSHA2			RSHA3			RSHA4			RLMAL			RMMAL			RHEEL			RMET5			RMET1			RTOE			LTHI1			LTHI2			LTHI3			LTHI4			LLKN			LMKN			LSHA1			LSHA2			LSHA3			LSHA4			LLMAL			LMMAL			LHEEL			LMET5			LMET1			LTOE			
		X1	Y1	Z1	X2	Y2	Z2	X3	Y3	Z3	X4	Y4	Z4	X5	Y5	Z5	X6	Y6	Z6	X7	Y7	Z7	X8	Y8	Z8	X9	Y9	Z9	X10	Y10	Z10	X11	Y11	Z11	X12	Y12	Z12	X13	Y13	Z13	X14	Y14	Z14	X15	Y15	Z15	X16	Y16	Z16	X17	Y17	Z17	X18	Y18	Z18	X19	Y19	Z19	X20	Y20	Z20	X21	Y21	Z21	X22	Y22	Z22	X23	Y23	Z23	X24	Y24	Z24	X25	Y25	Z25	X26	Y26	Z26	X27	Y27	Z27	X28	Y28	Z28	X29	Y29	Z29	X30	Y30	Z30	X31	Y31	Z31	X32	Y32	Z32	X33	Y33	Z33	X34	Y34	Z34	X35	Y35	Z35	X36	Y36	Z36	X37	Y37	Z37	X38	Y38	Z38	X39	Y39	Z39	X40	Y40	Z40	X41	Y41	Z41	X42	Y42	Z42	X43	Y43	Z43	
126	0.6300	-0.298169	1.506807	-0.562344	-0.256290	1.460182	-0.779443	-0.221281	1.463126	-0.358567	-0.168506	1.422438	-0.567924	-0.234878	0.985696	-0.435263	-0.243319	0.978814	-0.676741	-0.316360	1.048366	-0.384452	-0.324507	1.049904	-0.720252	-0.415926	1.028598	-0.504746	-0.415249	1.028526	-0.597636	-0.418810	1.028203	-0.550999	-0.297917	0.777641	-0.348086	-0.280655	0.720709	-0.340704	-0.217631	0.735634	-0.342491	-0.227102	0.796040	-0.350895	-0.212500	0.465250	-0.348974	-0.212560	0.450285	-0.466138	-0.320388	0.319349	-0.319510	-0.344405	0.285394	-0.330069	-0.292231	0.260685	-0.350186	-0.274318	0.295107	-0.342550	-0.421300	0.114834	-0.346464	-0.392466	0.108348	-0.435483	-0.476521	0.097779	-0.390024	-0.317605	0.029425	-0.318231	-0.275863	0.042711	-0.395604	-0.246088	0.031597	-0.396539	-0.309008	0.726267	-0.747349	-0.291033	0.667537	-0.752016	-0.227933	0.681057	-0.760062	-0.238486	0.740074	-0.757009	-0.234085	0.454484	-0.738587	-0.211167	0.446521	-0.628002	-0.351982	0.297140	-0.749866	-0.371465	0.262206	-0.739950	-0.315443	0.239689	-0.729287	-0.301307	0.280320	-0.741545	-0.422103	0.091535	-0.725040	-0.404069	0.096244	-0.632489	-0.488137	0.075333	-0.683332	-0.319286	0.026842	-0.749922	-0.279445	0.038889	-0.668041	-0.251499	0.027877	-0.666787	
127	0.6350	-0.298828	1.511781	-0.562119	-0.257470	1.465841	-0.779190	-0.221753	1.468391	-0.358597	-0.169082	1.427866	-0.567978	-0.233830	0.990336	-0.435443	-0.242619	0.983505	-0.676867	-0.314265	1.053269	-0.384613	-0.323494	1.054918	-0.720224	-0.414851	1.033532	-0.504596	-0.414267	1.033421	-0.597480	-0.417765	1.033161	-0.550860	-0.297938	0.782251	-0.347946	-0.281012	0.725193	-0.340638	-0.217923	0.739720	-0.342542	-0.227023	0.800189	-0.350979	-0.214883	0.469267	-0.348779	-0.215222	0.454191	-0.466033	-0.321752	0.322441	-0.319108	-0.345526	0.288204	-0.329733	-0.292940	0.263986	-0.349528	-0.275479	0.298478	-0.341976	-0.420640	0.117138	-0.345706	-0.391653	0.110465	-0.434623	-0.475502	0.100182	-0.389369	-0.317305	0.029619	-0.318327	-0.275751	0.042757	-0.395491	-0.246150	0.031657	-0.396539	-0.309576	0.730794	-0.747248	-0.291962	0.671952	-0.751928	-0.228776	0.685121	-0.760056	-0.238983	0.744194	-0.757001	-0.236290	0.458611	-0.738603	-0.213360	0.450652	-0.627905	-0.353026	0.300313	-0.749995	-0.372228	0.265197	-0.740048	-0.316020	0.243049	-0.729666	-0.302207	0.283807	-0.741901	-0.421495	0.093885	-0.725543	-0.403150	0.098587	-0.633079	-0.487140	0.078142	-0.683604	-0.319009	0.027102	-0.749758	-0.279264	0.038889	-0.668144	-0.251506	0.027892	-0.666798	
128	0.6400	-0.299477	1.516868	-0.561896	-0.258618	1.471587	-0.778916	-0.222201	1.473764	-0.358643	-0.169634	1.433391	-0.568005	-0.232790	0.995072	-0.435627	-0.241912	0.988300	-0.676993	-0.312210	1.058370	-0.384833	-0.322569	1.060135	-0.720179	-0.413775	1.038610	-0.504453	-0.413271	1.038480	-0.597366	-0.416708	1.038272	-0.550737	-0.297958	0.786970	-0.347826	-0.281370	0.729816	-0.340557	-0.218210	0.743940	-0.342569	-0.226947	0.804464	-0.351049	-0.217270	0.473439	-0.348555	-0.217759	0.458239	-0.465889	-0.323094	0.325695	-0.318669	-0.346575	0.291181	-0.329319	-0.293584	0.267465	-0.348800	-0.276596	0.302042	-0.341357	-0.419833	0.119623	-0.344883	-0.390724	0.112716	-0.433709	-0.474357	0.102758	-0.388728	-0.316971	0.029848	-0.318432	-0.275624	0.042809	-0.395372	-0.246206	0.031723	-0.396519	-0.310139	0.735455	-0.747152	-0.292905	0.676499	-0.751856	-0.229634	0.689306	-0.760094	-0.239488	0.748437	-0.757028	-0.238458	0.462883	-0.738648	-0.215452	0.454897	-0.627883	-0.354009	0.303642	-0.750141	-0.372917	0.268354	-0.740148	-0.316528	0.246575	-0.730079	-0.303041	0.287450	-0.742300	-0.420797	0.096401	-0.726064	-0.402108	0.101099	-0.633709	-0.486018	0.081133	-0.683877	-0.318697	0.027426	-0.749588	-0.279052	0.038903	-0.668253	-0.251513	0.027911	-0.666819	
129	0.6450	-0.300119	1.522027	-0.561680	-0.259722	1.477382	-0.778618	-0.222666	1.479199	-0.358691	-0.170200	1.438995	-0.568012	-0.231788	0.999891	-0.435825	-0.241204	0.993182	-0.677123	-0.310234	1.063647	-0.385096	-0.321754	1.065535	-0.720122	-0.412704	1.043799	-0.504322	-0.412273	1.043660	-0.597287	-0.415650	1.043500	-0.550639	-0.297976	0.791774	-0.347731	-0.281727	0.734524	-0.340468	-0.218496	0.748265	-0.342569	-0.226878	0.808830	-0.351101	-0.219637	0.477733	-0.348309	-0.220148	0.462385	-0.465701	-0.324388	0.329087	-0.318194	-0.347476	0.294312	-0.328760	-0.294158	0.271095	-0.348014	-0.277638	0.305779	-0.340678	-0.418991	0.122173	-0.344110	-0.389664	0.115098	-0.432740	-0.473068	0.105460	-0.388083	-0.316600	0.030102	-0.318530	-0.275476	0.042883	-0.395242	-0.246255	0.031794	-0.396475	-0.310691	0.740217	-0.747062	-0.293834	0.681156	-0.751797	-0.230494	0.693594	-0.760175	-0.239993	0.752779	-0.757091	-0.240579	0.467269	-0.738723	-0.217403	0.459237	-0.627933	-0.354927	0.307098	-0.750281	-0.373531	0.271638	-0.740246	-0.316946	0.250238	-0.730528	-0.303806	0.291222	-0.742723	-0.420001	0.099054	-0.726600	-0.400932	0.103753	-0.634373	-0.484769	0.084289	-0.684154	-0.318349	0.027817	-0.749414	-0.278811	0.038932	-0.668369	-0.251518	0.027934	-0.666856	
130	0.6500	-0.300755	1.527222	-0.561468	-0.260772	1.483190	-0.778296	-0.223136	1.484674	-0.358744	-0.170769	1.444654	-0.567998	-0.230830	1.004764	-0.436040	-0.240505	0.998124	-0.677260	-0.308371	1.069064	-0.385390	-0.321054	1.071094	-0.720052	-0.411647	1.049066	-0.504213	-0.411281	1.048919	-0.597233	-0.414596	1.048813	-0.550560	-0.298001	0.796629	-0.347666	-0.282081	0.739285	-0.340371	-0.218784	0.752666	-0.342540	-0.226820	0.813264	-0.351129	-0.221972	0.482120	-0.348044	-0.222396	0.466599	-0.465470	-0.325603	0.332581	-0.317677	-0.348225	0.297583	-0.328062	-0.294648	0.274846	-0.347187	-0.278587	0.309667	-0.339942	-0.418106	0.124750	-0.343380	-0.388477	0.117564	-0.431711	-0.471653	0.108308	-0.387369	-0.316193	0.030374	-0.318601	-0.275319	0.042965	-0.395093	-0.246309	0.031863	-0.396392	-0.311225	0.745052	-0.746966	-0.294750	0.685891	-0.751756	-0.231346	0.697962	-0.760301	-0.240492	0.757200	-0.757195	-0.242640	0.471749	-0.738817	-0.219214	0.463634	-0.628052	-0.355772	0.310654	-0.750405	-0.374063	0.275027	-0.740332	-0.317282	0.254000	-0.731016	-0.304499	0.295099	-0.743171	-0.419091	0.101834	-0.727144	-0.399618	0.106525	-0.635065	-0.483393	0.087582	-0.684428	-0.317965	0.028264	-0.749238	-0.278541	0.038982	-0.668492	-0.251518	0.027964	-0.666911	
131	0.6550	-0.301385	1.532414	-0.561261	-0.261766	1.488969	-0.777958	-0.223613	1.490153	-0.358793	-0.171364	1.450327	-0.567964	-0.229923	1.009671	-0.436274	-0.239819	1.003102	-0.677403	-0.306652	1.074593	-0.385708	-0.320447	1.076796	-0.719974	-0.410614	1.054384	-0.504135	-0.410300	1.054229	-0.597200	-0.413558	1.054181	-0.550510	-0.298039	0.801504	-0.347610	-0.282440	0.744080	-0.340271	-0.219075	0.757107	-0.342483	-0.226776	0.817735	-0.351131	-0.224263	0.486585	-0.347769	-0.224509	0.470836	-0.465200	-0.326725	0.336168	-0.317103	-0.348858	0.300941	-0.327297	-0.295090	0.278693	-0.346336	-0.279431	0.313676	-0.339161	-0.417013	0.127446	-0.342538	-0.387147	0.120106	-0.430612	-0.470137	0.111262	-0.386573	-0.315748	0.030661	-0.318659	-0.275151	0.043064	-0.394924	-0.246368	0.031930	-0.396270	-0.311736	0.749932	-0.746867	-0.295636	0.690683	-0.751723	-0.232185	0.702383	-0.760461	-0.240981	0.761676	-0.757343	-0.244635	0.476288	-0.738926	-0.220882	0.468075	-0.628224	-0.356534	0.314290	-0.750504	-0.374506	0.278491	-0.740402	-0.317533	0.257839	-0.731539	-0.305113	0.299051	-0.743642	-0.418063	0.104710	-0.727699	-0.398146	0.109382	-0.635785	-0.481893	0.090984	-0.684697	-0.317545	0.028760	-0.749071	-0.278244	0.039059	-0.668629	-0.251508	0.027999	-0.666989	
132	0.6600	-0.302001	1.537575	-0.561061	-0.262703	1.494692	-0.777602	-0.224101	1.495608	-0.358840	-0.171983	1.455988	-0.567901	-0.229072	1.014589	-0.436522	-0.239154	1.008095	-0.677556	-0.305108	1.080200	-0.386039	-0.319938	1.082582	-0.719892	-0.409613	1.059720	-0.504088	-0.409349	1.059553	-0.597210	-0.412542	1.059566	-0.550479	-0.298092	0.806366	-0.347564	-0.282803	0.748875	-0.340172	-0.219375	0.761563	-0.342398	-0.226752	0.822217	-0.351105	-0.226499	0.491094	-0.347494	-0.226498	0.475070	-0.464901	-0.327758	0.339829	-0.316500	-0.349386	0.304357	-0.326487	-0.295461	0.282610	-0.345461	-0.280174	0.317773	-0.338362	-0.415701	0.130228	-0.341580	-0.385675	0.122689	-0.429447	-0.468524	0.114307	-0.385675	-0.315255	0.030963	-0.318703	-0.274970	0.043192	-0.394732	-0.246428	0.031991	-0.396109	-0.312220	0.754832	-0.746761	-0.296494	0.695502	-0.751703	-0.233002	0.706835	-0.760650	-0.241456	0.766181	-0.757531	-0.246557	0.480867	-0.739049	-0.222408	0.472538	-0.628443	-0.357208	0.317982	-0.750577	-0.374857	0.282016	-0.740451	-0.317688	0.261719	-0.732098	-0.305642	0.303053	-0.744127	-0.416908	0.107654	-0.728254	-0.396511	0.112285	-0.636522	-0.480273	0.094470	-0.684958	-0.317087	0.029287	-0.748908	-0.277928	0.039168	-0.668780	-0.251484	0.028039	-0.667099	
133	0.6650	-0.302603	1.542670	-0.560861	-0.263578	1.500333	-0.777232	-0.224578	1.501014	-0.358892	-0.172624	1.461603	-0.567830	-0.228282	1.019503	-0.436785	-0.238509	1.013080	-0.677717	-0.303757	1.085850	-0.386374	-0.319515	1.088423	-0.719805	-0.408655	1.065041	-0.504070	-0.408426	1.064851	-0.597220	-0.411557	1.064933	-0.550474	-0.298168	0.811198	-0.347534	-0.283173	0.753637	-0.340078	-0.219685	0.766009	-0.342288	-0.226750	0.826686	-0.351051	-0.228668	0.495628	-0.347225	-0.228385	0.479279	-0.464586	-0.328685	0.343525	-0.315884	-0.349744	0.307835	-0.325577	-0.295737	0.286589	-0.344576	-0.280808	0.321920	-0.337549	-0.414255	0.133004	-0.340584	-0.384062	0.125293	-0.428220	-0.466798	0.117406	-0.384662	-0.314705	0.031289	-0.318737	-0.274767	0.043366	-0.394536	-0.246471	0.032048	-0.395915	-0.312678	0.759719	-0.746654	-0.297311	0.700317	-0.751685	-0.233789	0.711298	-0.760867	-0.241914	0.770692	-0.757758	-0.248404	0.485451	-0.739175	-0.223793	0.476998	-0.628694	-0.357793	0.321698	-0.750614	-0.375123	0.285551	-0.740482	-0.317746	0.265624	-0.732685	-0.306085	0.307077	-0.744619	-0.415619	0.110630	-0.728814	-0.394723	0.115206	-0.637278	-0.478540	0.098012	-0.685212	-0.316589	0.029830	-0.748735	-0.277589	0.039329	-0.668940	-0.251422	0.028099	-0.667232	
